<svg width="478" height="478" viewBox="0 0 478 478" fill="none" xmlns="http://www.w3.org/2000/svg">
<g clip-path="url(#clip0)">
<path d="M187.722 102.856V17.062C187.719 7.636 180.076 -0.00299912 170.65 8.83321e-07C165.816 0.00100088 161.21 2.053 157.974 5.644L4.37502 176.311C-1.24198 182.567 -1.46698 191.981 3.84602 198.498L157.446 386.231C163.414 393.526 174.166 394.602 181.462 388.634C185.414 385.401 187.711 380.568 187.722 375.462V290.419C322.549 294.805 406.687 352.439 444.61 466.206C446.936 473.166 453.451 477.859 460.789 477.862C461.709 477.865 462.629 477.79 463.537 477.64C471.793 476.293 477.856 469.161 477.856 460.795C477.855 259.818 356.87 112.174 187.722 102.856Z" fill="white"/>
</g>
<defs>
<clipPath id="clip0">
<rect width="477.862" height="477.862" fill="white"/>
</clipPath>
</defs>
</svg>
