<svg width="555" height="555" viewBox="0 0 555 555" fill="none" xmlns="http://www.w3.org/2000/svg">
<g clip-path="url(#clip0)">
<path d="M277.312 0C124.312 0 0 124.312 0 277.312C0 430.312 124.312 554.624 277.312 554.624C430.312 554.624 554.624 430.312 554.624 277.312C554.624 124.312 430.312 0 277.312 0ZM277.312 497.25C155.868 497.25 57.374 398.756 57.374 277.312C57.374 155.868 155.868 57.374 277.312 57.374C398.755 57.374 497.25 155.868 497.25 277.312C497.25 398.756 398.756 497.25 277.312 497.25Z" fill="white"/>
<path d="M286.876 77.456H258.188V134.831H286.876V77.456Z" fill="white"/>
<path d="M468.563 259.144H411.188V287.832H468.563V259.144Z" fill="white"/>
<path d="M133.875 259.144H76.5V287.832H133.875V259.144Z" fill="white"/>
<path d="M286.876 412.144H258.188V469.519H286.876V412.144Z" fill="white"/>
<path d="M375.328 153.956C383.778 153.956 390.628 147.106 390.628 138.656C390.628 130.206 383.778 123.356 375.328 123.356C366.878 123.356 360.028 130.206 360.028 138.656C360.028 147.106 366.878 153.956 375.328 153.956Z" fill="white"/>
<path d="M423.141 211.331C431.591 211.331 438.441 204.481 438.441 196.031C438.441 187.581 431.591 180.731 423.141 180.731C414.691 180.731 407.841 187.581 407.841 196.031C407.841 204.481 414.691 211.331 423.141 211.331Z" fill="white"/>
<path d="M126.703 383.456C135.153 383.456 142.003 376.606 142.003 368.156C142.003 359.706 135.153 352.856 126.703 352.856C118.253 352.856 111.403 359.706 111.403 368.156C111.403 376.606 118.253 383.456 126.703 383.456Z" fill="white"/>
<path d="M174.516 440.831C182.966 440.831 189.816 433.981 189.816 425.531C189.816 417.081 182.966 410.231 174.516 410.231C166.066 410.231 159.216 417.081 159.216 425.531C159.216 433.981 166.066 440.831 174.516 440.831Z" fill="white"/>
<path d="M418.359 388.238C426.809 388.238 433.659 381.388 433.659 372.938C433.659 364.488 426.809 357.638 418.359 357.638C409.909 357.638 403.059 364.488 403.059 372.938C403.059 381.388 409.909 388.238 418.359 388.238Z" fill="white"/>
<path d="M360.984 436.05C369.434 436.05 376.284 429.2 376.284 420.75C376.284 412.3 369.434 405.45 360.984 405.45C352.534 405.45 345.684 412.3 345.684 420.75C345.684 429.2 352.534 436.05 360.984 436.05Z" fill="white"/>
<path d="M131.484 196.987C139.934 196.987 146.784 190.137 146.784 181.687C146.784 173.237 139.934 166.387 131.484 166.387C123.034 166.387 116.184 173.237 116.184 181.687C116.184 190.137 123.034 196.987 131.484 196.987Z" fill="white"/>
<path d="M188.859 149.175C197.309 149.175 204.159 142.325 204.159 133.875C204.159 125.425 197.309 118.575 188.859 118.575C180.409 118.575 173.559 125.425 173.559 133.875C173.559 142.325 180.409 149.175 188.859 149.175Z" fill="white"/>
<path d="M360.028 287.831C360.028 279.703 353.812 273.487 345.684 273.487H286.874V166.387C286.874 158.259 280.658 152.043 272.53 152.043C264.402 152.043 258.186 158.259 258.186 166.387V287.831C258.186 295.959 264.402 302.175 272.53 302.175H345.683C353.812 302.175 360.028 295.959 360.028 287.831Z" fill="white"/>
</g>
<defs>
<clipPath id="clip0">
<rect width="554.625" height="554.625" fill="white"/>
</clipPath>
</defs>
</svg>
