<svg width="18" height="32" viewBox="0 0 18 32" fill="none" xmlns="http://www.w3.org/2000/svg">
<path d="M14.998 20.227V16.28C14.998 7.47401 11.273 2.15501 9.715 0.316007C9.547 0.116007 9.3 0.00200658 9.04 6.5814e-06C8.779 -0.000993419 8.532 0.112007 8.361 0.310007C6.777 2.14501 2.977 7.46601 2.977 16.28V20.228L2.248 20.719C0.843 21.667 0 23.252 0 24.948V29.659C0 29.938 0.154 30.196 0.4 30.329C0.647 30.461 0.946 30.446 1.178 30.29L3.546 28.713C4.211 28.271 4.991 28.034 5.79 28.034H7.531V30.317C7.531 30.737 7.871 31.077 8.29 31.077H9.684C10.103 31.077 10.443 30.737 10.443 30.317V28.034H12.183C12.982 28.034 13.763 28.269 14.429 28.714L16.795 30.29C17.027 30.446 17.326 30.461 17.573 30.329C17.819 30.196 17.973 29.938 17.973 29.659V24.948C17.973 23.254 17.129 21.669 15.725 20.719L14.998 20.227ZM8.988 14.043C7.542 14.043 6.368 12.87 6.368 11.424C6.368 9.97701 7.542 8.80501 8.988 8.80501C10.433 8.80501 11.607 9.97701 11.607 11.424C11.607 12.87 10.433 14.043 8.988 14.043Z" fill="white"/>
</svg>
