<svg width="924" height="113" viewBox="0 0 924 113" fill="none" xmlns="http://www.w3.org/2000/svg">
<path d="M83.5994 69.2017H21.8287V53.8752H101.48C99.3904 47.373 92.656 41.3353 80.8128 41.3353H22.9898C9.75326 41.3353 2.08999 46.2119 2.08999 56.894V68.2729C2.08999 77.5617 9.98549 82.9028 21.5965 82.9028H84.0639V99.1582H0C2.08999 107.983 8.82438 112.627 20.8999 112.627H83.8316C97.0682 112.627 103.57 107.518 103.57 96.6038V85.225C103.57 75.2395 95.9071 69.8984 83.5994 69.2017ZM209.695 41.5675H133.527V112.859H155.123V85.4572H211.321C226.88 85.4572 235.472 80.1161 235.472 67.5762V59.6807C235.239 48.0697 225.486 41.5675 209.695 41.5675ZM216.662 64.3251C216.662 69.434 215.733 72.2206 207.373 72.2206H155.123L155.356 53.643H206.444C215.733 53.643 216.894 56.4296 216.894 61.3062V64.3251H216.662ZM307.228 84.9927H261.248L249.869 97.0682H316.284L327.663 112.859H353.208L298.171 38.5486L285.167 54.5718L307.228 84.9927ZM394.543 53.8752H475.356C473.266 45.5152 465.138 41.3353 453.527 41.3353H393.149C382.7 41.3353 372.714 45.5152 372.714 56.894V96.836C372.714 108.215 382.7 112.395 393.149 112.395H454.224C468.157 112.395 473.033 108.447 475.356 98.926H394.543V53.8752ZM570.102 77.5617V65.4862H504.848V112.859H601.219V99.3904H526.676V77.5617H570.102ZM507.17 41.5675H604.47V54.1074H507.17V41.5675ZM664.383 41.5675H630.479L670.421 70.8273C676.226 66.8795 682.961 62.6996 688.999 59.2162L664.383 41.5675ZM713.614 78.0261C707.808 81.9739 702.003 86.3861 696.43 90.566L726.618 112.627H760.755L713.614 78.0261Z" fill="white"/>
<path d="M923.077 0C737.3 10.6821 651.379 90.1016 632.105 108.911L628.157 112.627H662.525C755.414 19.5065 888.94 3.01887 923.077 0Z" fill="white"/>
</svg>
